<svg width="405" height="753" viewBox="0 0 405 753" fill="none" xmlns="http://www.w3.org/2000/svg">
<g clip-path="url(#clip0_1_1052)">
<path d="M-358.39 330.707L-293.914 266.23L-293.846 266.163H-172.545L-220.81 314.428L-233.272 326.889L-282.697 376.314L-276.575 382.453L0.316589 659.328L283.33 376.314L233.888 326.889L230.407 323.391L173.178 266.163H294.48L294.547 266.23L345.082 316.765L404.631 376.314L0.316589 780.629L-403.998 376.314L-358.39 330.707ZM0.316589 -28L233.938 205.622H112.637L0.316589 93.301L-112.004 205.622H-233.305L0.316589 -28Z" fill="#01543B"/>
<path d="M-516.39 330.707L-451.914 266.23L-451.846 266.163H-330.545L-378.81 314.428L-391.272 326.889L-440.697 376.314L-434.575 382.453L-157.683 659.328L125.33 376.314L75.8879 326.889L72.4068 323.391L15.1785 266.163H136.48L136.547 266.23L187.082 316.765L246.631 376.314L-157.683 780.629L-561.998 376.314L-516.39 330.707ZM-157.683 -28L75.9383 205.622H-45.3627L-157.683 93.301L-270.004 205.622H-391.305L-157.683 -28Z" fill="#E9BC26"/>
<path d="M-647.386 330.707L-582.91 266.23L-582.842 266.163H-461.541L-509.806 314.428L-522.268 326.889L-571.693 376.314L-565.571 382.453L-288.68 659.328L-5.66626 376.314L-55.1082 326.889L-58.5893 323.391L-115.818 266.163H5.4834L5.55072 266.23L56.0858 316.765L115.635 376.314L-288.68 780.629L-692.994 376.314L-647.386 330.707ZM-288.68 -28L-55.0578 205.622H-176.359L-288.68 93.301L-401 205.622H-522.301L-288.68 -28Z" fill="#FFF1F0"/>
</g>
<defs>
<clipPath id="clip0_1_1052">
<rect width="405" height="809" fill="white" transform="translate(0 -28)"/>
</clipPath>
</defs>
</svg>
